<svg width="1689" height="1275" xmlns="http://www.w3.org/2000/svg">
<rect width="1689" height="1275" fill="#f5f5f5"/>
<rect x="15" y="15" width="1659" height="1245" fill="white" stroke="none" rx="12"/>
<text x="40" y="48" fill="#666" font-family="Arial,sans-serif" font-size="14" font-weight="bold" letter-spacing="1px">ATTRIBUTION CIRCUIT</text>
<text x="25" y="96.0" fill="#999" font-family="monospace" font-size="10" font-weight="bold" text-anchor="start">L26</text>
<text x="25" y="227.0" fill="#999" font-family="monospace" font-size="10" font-weight="bold" text-anchor="start">L8</text>
<text x="25" y="365.0" fill="#999" font-family="monospace" font-size="10" font-weight="bold" text-anchor="start">L6</text>
<text x="25" y="503.0" fill="#999" font-family="monospace" font-size="10" font-weight="bold" text-anchor="start">L4</text>
<text x="25" y="648.0" fill="#999" font-family="monospace" font-size="10" font-weight="bold" text-anchor="start">L3</text>
<text x="25" y="793.0" fill="#999" font-family="monospace" font-size="10" font-weight="bold" text-anchor="start">L2</text>
<text x="25" y="931.0" fill="#999" font-family="monospace" font-size="10" font-weight="bold" text-anchor="start">L1</text>
<text x="25" y="1062.0" fill="#999" font-family="monospace" font-size="10" font-weight="bold" text-anchor="start">L0</text>
<defs><marker id="arrow" markerWidth="8" markerHeight="6" refX="8" refY="3" orient="auto"><polygon points="0,0 8,3 0,6" fill="#8B4513" fill-opacity="0.7"/></marker></defs>
<path d="M 180.0,1036.0 C 322.18949999999995,854.5 985.7404999999999,854.5 1127.9299999999998,673.0" fill="none" stroke="#8B4513" stroke-width="3" stroke-opacity="0.6" marker-end="url(#arrow)"/>
<path d="M 180.0,1036.0 C 184.94325,854.5 208.01174999999998,854.5 212.95499999999998,673.0" fill="none" stroke="#8B4513" stroke-width="3" stroke-opacity="0.6" marker-end="url(#arrow)"/>
<path d="M 180.0,1036.0 C 368.076,854.5 1245.764,854.5 1433.84,673.0" fill="none" stroke="#8B4513" stroke-width="3" stroke-opacity="0.6" marker-end="url(#arrow)"/>
<path d="M 420.0,1036.0 C 430.719,927.0 480.74099999999993,927.0 491.4599999999999,818.0" fill="none" stroke="#8B4513" stroke-width="3" stroke-opacity="0.6" marker-end="url(#arrow)"/>
<path d="M 420.0,1036.0 C 393.123,996.0 267.697,996.0 240.82,956.0" fill="none" stroke="#8B4513" stroke-width="3" stroke-opacity="0.6" marker-end="url(#arrow)"/>
<path d="M 420.0,1036.0 C 437.3565,996.0 518.3534999999999,996.0 535.7099999999999,956.0" fill="none" stroke="#8B4513" stroke-width="3" stroke-opacity="0.6" marker-end="url(#arrow)"/>
<path d="M 420.0,1036.0 C 481.1295,858.0 766.4005,858.0 827.53,680.0" fill="none" stroke="#8B4513" stroke-width="3" stroke-opacity="0.6" marker-end="url(#arrow)"/>
<path d="M 660.0,1036.0 C 675.66825,927.0 748.78675,927.0 764.4549999999999,818.0" fill="none" stroke="#8B4513" stroke-width="3" stroke-opacity="0.6" marker-end="url(#arrow)"/>
<path d="M 660.0,1036.0 C 685.1295,782.0 802.4005,782.0 827.53,528.0" fill="none" stroke="#8B4513" stroke-width="3" stroke-opacity="0.6" marker-end="url(#arrow)"/>
<path d="M 900.0,1036.0 C 843.2429999999999,854.5 578.377,854.5 521.6199999999999,673.0" fill="none" stroke="#8B4513" stroke-width="3" stroke-opacity="0.6" marker-end="url(#arrow)"/>
<path d="M 900.0,1036.0 C 796.94325,782.0 316.01175,782.0 212.95499999999998,528.0" fill="none" stroke="#8B4513" stroke-width="3" stroke-opacity="0.6" marker-end="url(#arrow)"/>
<path d="M 900.0,1036.0 C 797.3565,927.0 318.35349999999994,927.0 215.70999999999998,818.0" fill="none" stroke="#8B4513" stroke-width="3" stroke-opacity="0.6" marker-end="url(#arrow)"/>
<path d="M 900.0,1036.0 C 889.1295,782.0 838.4005,782.0 827.53,528.0" fill="none" stroke="#8B4513" stroke-width="3" stroke-opacity="0.6" marker-end="url(#arrow)"/>
<path d="M 900.0,1036.0 C 797.3565,644.0 318.35349999999994,644.0 215.70999999999998,252.0" fill="none" stroke="#8B4513" stroke-width="3" stroke-opacity="0.6" marker-end="url(#arrow)"/>
<path d="M 1140.0,1036.0 C 1048.0695,644.0 619.0604999999999,644.0 527.1299999999999,252.0" fill="none" stroke="#8B4513" stroke-width="3" stroke-opacity="0.6" marker-end="url(#arrow)"/>
<path d="M 521.6199999999999,615.0 C 567.5065,571.5 781.6434999999999,571.5 827.53,528.0" fill="none" stroke="#8B4513" stroke-width="3" stroke-opacity="0.6" marker-end="url(#arrow)"/>
<path d="M 521.6199999999999,615.0 C 475.32024999999993,571.5 259.25474999999994,571.5 212.95499999999998,528.0" fill="none" stroke="#8B4513" stroke-width="3" stroke-opacity="0.6" marker-end="url(#arrow)"/>
<path d="M 521.6199999999999,615.0 C 500.3769999999999,502.5 401.243,502.5 380.0,390.0" fill="none" stroke="#8B4513" stroke-width="3" stroke-opacity="0.6" marker-end="url(#arrow)"/>
<path d="M 215.70999999999998,760.0 C 215.29674999999997,644.0 213.36825,644.0 212.95499999999998,528.0" fill="none" stroke="#8B4513" stroke-width="3" stroke-opacity="0.6" marker-end="url(#arrow)"/>
<path d="M 215.70999999999998,760.0 C 307.48299999999995,644.0 735.757,644.0 827.53,528.0" fill="none" stroke="#8B4513" stroke-width="3" stroke-opacity="0.6" marker-end="url(#arrow)"/>
<path d="M 212.95499999999998,528.0 C 259.25474999999994,499.0 475.32024999999993,499.0 521.6199999999999,470.0" fill="none" stroke="#8B4513" stroke-width="3" stroke-opacity="0.6" marker-end="url(#arrow)"/>
<path d="M 212.95499999999998,470.0 C 238.01174999999998,430.0 354.94325,430.0 380.0,390.0" fill="none" stroke="#8B4513" stroke-width="3" stroke-opacity="0.6" marker-end="url(#arrow)"/>
<path d="M 827.53,470.0 C 760.4005,430.0 447.1295,430.0 380.0,390.0" fill="none" stroke="#8B4513" stroke-width="3" stroke-opacity="0.6" marker-end="url(#arrow)"/>
<path d="M 380.0,332.0 C 355.3565,292.0 240.3535,292.0 215.70999999999998,252.0" fill="none" stroke="#8B4513" stroke-width="3" stroke-opacity="0.6" marker-end="url(#arrow)"/>
<path d="M 212.95499999999998,470.0 C 213.36825,361.0 215.29674999999997,361.0 215.70999999999998,252.0" fill="none" stroke="#8B4513" stroke-width="3" stroke-opacity="0.6" marker-end="url(#arrow)"/>
<path d="M 900.0,1036.0 C 797.3565,644.0 318.35349999999994,644.0 215.70999999999998,252.0" fill="none" stroke="#8B4513" stroke-width="3" stroke-opacity="0.6" marker-end="url(#arrow)"/>
<path d="M 1127.9299999999998,615.0 C 1084.1097499999998,433.5 879.6152499999998,433.5 835.7949999999998,252.0" fill="none" stroke="#8B4513" stroke-width="3" stroke-opacity="0.6" marker-end="url(#arrow)"/>
<path d="M 212.95499999999998,615.0 C 306.381,433.5 742.3689999999999,433.5 835.7949999999998,252.0" fill="none" stroke="#8B4513" stroke-width="3" stroke-opacity="0.6" marker-end="url(#arrow)"/>
<path d="M 240.82,898.0 C 330.06624999999997,575.0 746.5487499999998,575.0 835.7949999999998,252.0" fill="none" stroke="#8B4513" stroke-width="3" stroke-opacity="0.6" marker-end="url(#arrow)"/>
<path d="M 827.53,470.0 C 828.7697499999999,361.0 834.5552499999999,361.0 835.7949999999998,252.0" fill="none" stroke="#8B4513" stroke-width="3" stroke-opacity="0.6" marker-end="url(#arrow)"/>
<path d="M 1433.84,673.0 C 1292.483,716.5 632.8169999999999,716.5 491.4599999999999,760.0" fill="none" stroke="#8B4513" stroke-width="3" stroke-opacity="0.6" marker-end="url(#arrow)"/>
<path d="M 827.53,608.0 C 873.00325,568.0 1085.21175,568.0 1130.685,528.0" fill="none" stroke="#8B4513" stroke-width="3" stroke-opacity="0.6" marker-end="url(#arrow)"/>
<path d="M 420.0,1036.0 C 526.60275,782.0 1024.08225,782.0 1130.685,528.0" fill="none" stroke="#8B4513" stroke-width="3" stroke-opacity="0.6" marker-end="url(#arrow)"/>
<path d="M 535.7099999999999,898.0 C 580.7227499999999,575.0 790.7822499999999,575.0 835.7949999999998,252.0" fill="none" stroke="#8B4513" stroke-width="3" stroke-opacity="0.6" marker-end="url(#arrow)"/>
<path d="M 660.0,1036.0 C 675.66825,927.0 748.78675,927.0 764.4549999999999,818.0" fill="none" stroke="#8B4513" stroke-width="3" stroke-opacity="0.6" marker-end="url(#arrow)"/>
<path d="M 900.0,1036.0 C 843.2429999999999,782.0 578.377,782.0 521.6199999999999,528.0" fill="none" stroke="#8B4513" stroke-width="3" stroke-opacity="0.6" marker-end="url(#arrow)"/>
<path d="M 380.0,332.0 C 380.0,223.0 380.0,223.0 380.0,114.0" fill="none" stroke="#8B4513" stroke-width="3" stroke-opacity="0.6" marker-end="url(#arrow)"/>
<path d="M 215.70999999999998,194.0 C 240.3535,154.0 355.3565,154.0 380.0,114.0" fill="none" stroke="#8B4513" stroke-width="3" stroke-opacity="0.6" marker-end="url(#arrow)"/>
<path d="M 527.1299999999999,194.0 C 505.0604999999999,154.0 402.0695,154.0 380.0,114.0" fill="none" stroke="#8B4513" stroke-width="3" stroke-opacity="0.6" marker-end="url(#arrow)"/>
<path d="M 835.7949999999998,194.0 C 767.4257499999999,154.0 448.36924999999997,154.0 380.0,114.0" fill="none" stroke="#8B4513" stroke-width="3" stroke-opacity="0.6" marker-end="url(#arrow)"/>
<path d="M 1130.685,470.0 C 1018.0822499999999,292.0 492.60275,292.0 380.0,114.0" fill="none" stroke="#8B4513" stroke-width="3" stroke-opacity="0.6" marker-end="url(#arrow)"/>
<path d="M 1070.365,760.0 C 966.81025,437.0 483.55475,437.0 380.0,114.0" fill="none" stroke="#8B4513" stroke-width="3" stroke-opacity="0.6" marker-end="url(#arrow)"/>
<path d="M 827.53,608.0 C 760.4005,361.0 447.1295,361.0 380.0,114.0" fill="none" stroke="#8B4513" stroke-width="3" stroke-opacity="0.6" marker-end="url(#arrow)"/>
<rect x="280.0" y="70.0" width="200" height="44" fill="#e8e8e8" stroke="#999" stroke-width="2" rx="8"/>
<text x="380.0" y="88.0" text-anchor="middle" fill="#333" font-family="Arial,sans-serif" font-size="12" font-weight="bold">Probe output (toxicity</text>
<text x="380.0" y="102.0" text-anchor="middle" fill="#333" font-family="Arial,sans-serif" font-size="12" font-weight="bold">direction)</text>
<circle cx="462.0" cy="83.0" r="9" fill="#ccc"/>
<text x="462.0" y="87.0" text-anchor="middle" fill="#666" font-family="monospace" font-size="9" font-weight="bold">0</text>
<rect x="249.8" y="332.0" width="260.4" height="58" fill="#e8e8e8" stroke="#999" stroke-width="2" rx="8"/>
<text x="380.0" y="350.0" text-anchor="middle" fill="#333" font-family="Arial,sans-serif" font-size="12" font-weight="bold">Discrimination against</text>
<text x="380.0" y="364.0" text-anchor="middle" fill="#333" font-family="Arial,sans-serif" font-size="12" font-weight="bold">religious/ethnic groups</text>
<text x="380.0" y="378.0" text-anchor="middle" fill="#333" font-family="Arial,sans-serif" font-size="12" font-weight="bold">(L6:F648 pos 6)</text>
<text x="380.0" y="396.0" text-anchor="middle" fill="#666" font-family="monospace" font-size="9">L6:F648 —  words related to discriminati</text>
<circle cx="492.2" cy="345.0" r="9" fill="#ccc"/>
<text x="492.2" y="349.0" text-anchor="middle" fill="#666" font-family="monospace" font-size="9" font-weight="bold">1</text>
<rect x="80.0" y="194.0" width="271.41999999999996" height="58" fill="#e8e8e8" stroke="#999" stroke-width="2" rx="8"/>
<text x="215.70999999999998" y="212.0" text-anchor="middle" fill="#333" font-family="Arial,sans-serif" font-size="12" font-weight="bold">Religion and faith</text>
<text x="215.70999999999998" y="226.0" text-anchor="middle" fill="#333" font-family="Arial,sans-serif" font-size="12" font-weight="bold">(L8:F13197 pos 6)</text>
<text x="215.70999999999998" y="244.0" text-anchor="middle" fill="#666" font-family="monospace" font-size="9">L8:F13197 —  words related to religion and</text>
<circle cx="333.41999999999996" cy="207.0" r="9" fill="#ccc"/>
<text x="333.41999999999996" y="211.0" text-anchor="middle" fill="#666" font-family="monospace" font-size="9" font-weight="bold">1</text>
<rect x="391.4199999999999" y="194.0" width="271.41999999999996" height="58" fill="#e8e8e8" stroke="#999" stroke-width="2" rx="8"/>
<text x="527.1299999999999" y="212.0" text-anchor="middle" fill="#333" font-family="Arial,sans-serif" font-size="12" font-weight="bold">Negative reputation /</text>
<text x="527.1299999999999" y="226.0" text-anchor="middle" fill="#333" font-family="Arial,sans-serif" font-size="12" font-weight="bold">betrayal sentiment</text>
<text x="527.1299999999999" y="240.0" text-anchor="middle" fill="#333" font-family="Arial,sans-serif" font-size="12" font-weight="bold">(L8:F13875 pos 10)</text>
<text x="527.1299999999999" y="258.0" text-anchor="middle" fill="#666" font-family="monospace" font-size="9">L8:F13875 — negative sentiment related to </text>
<circle cx="644.8399999999999" cy="207.0" r="9" fill="#ccc"/>
<text x="644.8399999999999" y="211.0" text-anchor="middle" fill="#666" font-family="monospace" font-size="9" font-weight="bold">1</text>
<rect x="702.8399999999999" y="194.0" width="265.90999999999997" height="58" fill="#e8e8e8" stroke="#999" stroke-width="2" rx="8"/>
<text x="835.7949999999998" y="212.0" text-anchor="middle" fill="#333" font-family="Arial,sans-serif" font-size="12" font-weight="bold">Slavery / prejudice /</text>
<text x="835.7949999999998" y="226.0" text-anchor="middle" fill="#333" font-family="Arial,sans-serif" font-size="12" font-weight="bold">disability discussion</text>
<text x="835.7949999999998" y="240.0" text-anchor="middle" fill="#333" font-family="Arial,sans-serif" font-size="12" font-weight="bold">(L8:F2483 pos 3)</text>
<text x="835.7949999999998" y="258.0" text-anchor="middle" fill="#666" font-family="monospace" font-size="9">L8:F2483 —  discussions of slavery, preju</text>
<circle cx="950.7499999999999" cy="207.0" r="9" fill="#ccc"/>
<text x="950.7499999999999" y="211.0" text-anchor="middle" fill="#666" font-family="monospace" font-size="9" font-weight="bold">1</text>
<rect x="80.0" y="470.0" width="265.90999999999997" height="58" fill="#e8e8e8" stroke="#999" stroke-width="2" rx="8"/>
<text x="212.95499999999998" y="488.0" text-anchor="middle" fill="#333" font-family="Arial,sans-serif" font-size="12" font-weight="bold">Religious identity /</text>
<text x="212.95499999999998" y="502.0" text-anchor="middle" fill="#333" font-family="Arial,sans-serif" font-size="12" font-weight="bold">spirituality (L4:F2405 pos</text>
<text x="212.95499999999998" y="516.0" text-anchor="middle" fill="#333" font-family="Arial,sans-serif" font-size="12" font-weight="bold">6)</text>
<text x="212.95499999999998" y="534.0" text-anchor="middle" fill="#666" font-family="monospace" font-size="9">L4:F2405 —  words related to religious id</text>
<circle cx="327.90999999999997" cy="483.0" r="9" fill="#ccc"/>
<text x="327.90999999999997" y="487.0" text-anchor="middle" fill="#666" font-family="monospace" font-size="9" font-weight="bold">1</text>
<rect x="385.9099999999999" y="470.0" width="271.41999999999996" height="58" fill="#e8e8e8" stroke="#999" stroke-width="2" rx="8"/>
<text x="521.6199999999999" y="488.0" text-anchor="middle" fill="#333" font-family="Arial,sans-serif" font-size="12" font-weight="bold">Israel-Palestine context</text>
<text x="521.6199999999999" y="502.0" text-anchor="middle" fill="#333" font-family="Arial,sans-serif" font-size="12" font-weight="bold">(L4:F14733 pos 6)</text>
<text x="521.6199999999999" y="520.0" text-anchor="middle" fill="#666" font-family="monospace" font-size="9">L4:F14733 —  content related to the Israel</text>
<circle cx="639.3299999999999" cy="483.0" r="9" fill="#ccc"/>
<text x="639.3299999999999" y="487.0" text-anchor="middle" fill="#666" font-family="monospace" font-size="9" font-weight="bold">1</text>
<rect x="697.3299999999999" y="470.0" width="260.4" height="58" fill="#e8e8e8" stroke="#999" stroke-width="2" rx="8"/>
<text x="827.53" y="488.0" text-anchor="middle" fill="#333" font-family="Arial,sans-serif" font-size="12" font-weight="bold">Race / racism / Black</text>
<text x="827.53" y="502.0" text-anchor="middle" fill="#333" font-family="Arial,sans-serif" font-size="12" font-weight="bold">people (L4:F117 pos 6)</text>
<text x="827.53" y="520.0" text-anchor="middle" fill="#666" font-family="monospace" font-size="9">L4:F117 —  terms related to race, racism</text>
<circle cx="939.7299999999999" cy="483.0" r="9" fill="#ccc"/>
<text x="939.7299999999999" y="487.0" text-anchor="middle" fill="#666" font-family="monospace" font-size="9" font-weight="bold">1</text>
<rect x="997.73" y="470.0" width="265.90999999999997" height="58" fill="#e8e8e8" stroke="#999" stroke-width="2" rx="8"/>
<text x="1130.685" y="488.0" text-anchor="middle" fill="#333" font-family="Arial,sans-serif" font-size="12" font-weight="bold">Antagonist / fighting</text>
<text x="1130.685" y="502.0" text-anchor="middle" fill="#333" font-family="Arial,sans-serif" font-size="12" font-weight="bold">(L4:F8407 pos 4)</text>
<text x="1130.685" y="520.0" text-anchor="middle" fill="#666" font-family="monospace" font-size="9">L4:F8407 —  words related to antagonists </text>
<circle cx="1245.6399999999999" cy="483.0" r="9" fill="#ccc"/>
<text x="1245.6399999999999" y="487.0" text-anchor="middle" fill="#666" font-family="monospace" font-size="9" font-weight="bold">1</text>
<rect x="80.0" y="615.0" width="265.90999999999997" height="58" fill="#e8e8e8" stroke="#999" stroke-width="2" rx="8"/>
<text x="212.95499999999998" y="633.0" text-anchor="middle" fill="#333" font-family="Arial,sans-serif" font-size="12" font-weight="bold">self- prefix (L3:F9615 pos</text>
<text x="212.95499999999998" y="647.0" text-anchor="middle" fill="#333" font-family="Arial,sans-serif" font-size="12" font-weight="bold">3)</text>
<text x="212.95499999999998" y="665.0" text-anchor="middle" fill="#666" font-family="monospace" font-size="9">L3:F9615 —  words containing the prefix &quot;</text>
<circle cx="327.90999999999997" cy="628.0" r="9" fill="#ccc"/>
<text x="327.90999999999997" y="632.0" text-anchor="middle" fill="#666" font-family="monospace" font-size="9" font-weight="bold">1</text>
<rect x="385.9099999999999" y="615.0" width="271.41999999999996" height="58" fill="#e8e8e8" stroke="#999" stroke-width="2" rx="8"/>
<text x="521.6199999999999" y="633.0" text-anchor="middle" fill="#333" font-family="Arial,sans-serif" font-size="12" font-weight="bold">Capitalized token patterns</text>
<text x="521.6199999999999" y="647.0" text-anchor="middle" fill="#333" font-family="Arial,sans-serif" font-size="12" font-weight="bold">(L3:F12151 pos 6)</text>
<text x="521.6199999999999" y="665.0" text-anchor="middle" fill="#666" font-family="monospace" font-size="9">L3:F12151 —  capitalized common letter seq</text>
<circle cx="639.3299999999999" cy="628.0" r="9" fill="#ccc"/>
<text x="639.3299999999999" y="632.0" text-anchor="middle" fill="#666" font-family="monospace" font-size="9" font-weight="bold">1</text>
<rect x="697.3299999999999" y="608.0" width="260.4" height="72" fill="#e8e8e8" stroke="#999" stroke-width="2" rx="8"/>
<text x="827.53" y="626.0" text-anchor="middle" fill="#333" font-family="Arial,sans-serif" font-size="12" font-weight="bold">Love / hate / affection</text>
<text x="827.53" y="640.0" text-anchor="middle" fill="#333" font-family="Arial,sans-serif" font-size="12" font-weight="bold">(L3:F592)</text>
<text x="827.53" y="658.0" text-anchor="middle" fill="#666" font-family="monospace" font-size="9">L3:F592 — words related to love, affecti</text>
<text x="827.53" y="672.0" text-anchor="middle" fill="#666" font-family="monospace" font-size="9">L3:F592 — words related to love, affecti</text>
<circle cx="939.7299999999999" cy="621.0" r="9" fill="#ccc"/>
<text x="939.7299999999999" y="625.0" text-anchor="middle" fill="#666" font-family="monospace" font-size="9" font-weight="bold">2</text>
<rect x="997.7299999999998" y="615.0" width="260.4" height="58" fill="#e8e8e8" stroke="#999" stroke-width="2" rx="8"/>
<text x="1127.9299999999998" y="633.0" text-anchor="middle" fill="#333" font-family="Arial,sans-serif" font-size="12" font-weight="bold">self- hyphenated forms</text>
<text x="1127.9299999999998" y="647.0" text-anchor="middle" fill="#333" font-family="Arial,sans-serif" font-size="12" font-weight="bold">(L3:F735 pos 3)</text>
<text x="1127.9299999999998" y="665.0" text-anchor="middle" fill="#666" font-family="monospace" font-size="9">L3:F735 —  words and phrases that includ</text>
<circle cx="1240.1299999999997" cy="628.0" r="9" fill="#ccc"/>
<text x="1240.1299999999997" y="632.0" text-anchor="middle" fill="#666" font-family="monospace" font-size="9" font-weight="bold">1</text>
<rect x="1298.1299999999999" y="615.0" width="271.41999999999996" height="58" fill="#e8e8e8" stroke="#999" stroke-width="2" rx="8"/>
<text x="1433.84" y="633.0" text-anchor="middle" fill="#333" font-family="Arial,sans-serif" font-size="12" font-weight="bold">Interconnectedness /</text>
<text x="1433.84" y="647.0" text-anchor="middle" fill="#333" font-family="Arial,sans-serif" font-size="12" font-weight="bold">self-similarity (L3:F13819</text>
<text x="1433.84" y="661.0" text-anchor="middle" fill="#333" font-family="Arial,sans-serif" font-size="12" font-weight="bold">pos 3)</text>
<text x="1433.84" y="679.0" text-anchor="middle" fill="#666" font-family="monospace" font-size="9">L3:F13819 —  words and phrases about inter</text>
<circle cx="1551.5499999999997" cy="628.0" r="9" fill="#ccc"/>
<text x="1551.5499999999997" y="632.0" text-anchor="middle" fill="#666" font-family="monospace" font-size="9" font-weight="bold">1</text>
<rect x="80.0" y="760.0" width="271.41999999999996" height="58" fill="#e8e8e8" stroke="#999" stroke-width="2" rx="8"/>
<text x="215.70999999999998" y="778.0" text-anchor="middle" fill="#333" font-family="Arial,sans-serif" font-size="12" font-weight="bold">Race / ethnicity words</text>
<text x="215.70999999999998" y="792.0" text-anchor="middle" fill="#333" font-family="Arial,sans-serif" font-size="12" font-weight="bold">(L2:F13158 pos 6)</text>
<text x="215.70999999999998" y="810.0" text-anchor="middle" fill="#666" font-family="monospace" font-size="9">L2:F13158 —  words about race and ethnicit</text>
<circle cx="333.41999999999996" cy="773.0" r="9" fill="#ccc"/>
<text x="333.41999999999996" y="777.0" text-anchor="middle" fill="#666" font-family="monospace" font-size="9" font-weight="bold">1</text>
<rect x="391.41999999999996" y="760.0" width="200.07999999999998" height="58" fill="#e8e8e8" stroke="#999" stroke-width="2" rx="8"/>
<text x="491.4599999999999" y="778.0" text-anchor="middle" fill="#333" font-family="Arial,sans-serif" font-size="12" font-weight="bold">Subword &quot;hat&quot; (L2:F3983</text>
<text x="491.4599999999999" y="792.0" text-anchor="middle" fill="#333" font-family="Arial,sans-serif" font-size="12" font-weight="bold">pos 3)</text>
<text x="491.4599999999999" y="810.0" text-anchor="middle" fill="#666" font-family="monospace" font-size="9">L2:F3983 — the word &quot;hat&quot;</text>
<circle cx="573.5" cy="773.0" r="9" fill="#ccc"/>
<text x="573.5" y="777.0" text-anchor="middle" fill="#666" font-family="monospace" font-size="9" font-weight="bold">1</text>
<rect x="631.5" y="760.0" width="265.90999999999997" height="58" fill="#e8e8e8" stroke="#999" stroke-width="2" rx="8"/>
<text x="764.4549999999999" y="778.0" text-anchor="middle" fill="#333" font-family="Arial,sans-serif" font-size="12" font-weight="bold">Political party / wing</text>
<text x="764.4549999999999" y="792.0" text-anchor="middle" fill="#333" font-family="Arial,sans-serif" font-size="12" font-weight="bold">terms (L2:F3588 pos 5)</text>
<text x="764.4549999999999" y="810.0" text-anchor="middle" fill="#666" font-family="monospace" font-size="9">L2:F3588 —  terms related to politics and</text>
<circle cx="879.41" cy="773.0" r="9" fill="#ccc"/>
<text x="879.41" y="777.0" text-anchor="middle" fill="#666" font-family="monospace" font-size="9" font-weight="bold">1</text>
<rect x="937.4100000000001" y="760.0" width="265.90999999999997" height="58" fill="#e8e8e8" stroke="#999" stroke-width="2" rx="8"/>
<text x="1070.365" y="778.0" text-anchor="middle" fill="#333" font-family="Arial,sans-serif" font-size="12" font-weight="bold">Latex / code / dash</text>
<text x="1070.365" y="792.0" text-anchor="middle" fill="#333" font-family="Arial,sans-serif" font-size="12" font-weight="bold">(L2:F9871 pos 7)</text>
<text x="1070.365" y="810.0" text-anchor="middle" fill="#666" font-family="monospace" font-size="9">L2:F9871 — latex and code snippets and ma</text>
<circle cx="1185.3200000000002" cy="773.0" r="9" fill="#ccc"/>
<text x="1185.3200000000002" y="777.0" text-anchor="middle" fill="#666" font-family="monospace" font-size="9" font-weight="bold">1</text>
<rect x="105.11000000000001" y="898.0" width="271.41999999999996" height="58" fill="#e8e8e8" stroke="#999" stroke-width="2" rx="8"/>
<text x="240.82" y="916.0" text-anchor="middle" fill="#333" font-family="Arial,sans-serif" font-size="12" font-weight="bold">Equations with</text>
<text x="240.82" y="930.0" text-anchor="middle" fill="#333" font-family="Arial,sans-serif" font-size="12" font-weight="bold">hat-notation (L1:F14516</text>
<text x="240.82" y="944.0" text-anchor="middle" fill="#333" font-family="Arial,sans-serif" font-size="12" font-weight="bold">pos 3)</text>
<text x="240.82" y="962.0" text-anchor="middle" fill="#666" font-family="monospace" font-size="9">L1:F14516 —  equations with symbols, espec</text>
<circle cx="358.53" cy="911.0" r="9" fill="#ccc"/>
<text x="358.53" y="915.0" text-anchor="middle" fill="#666" font-family="monospace" font-size="9" font-weight="bold">1</text>
<rect x="416.5299999999999" y="898.0" width="238.35999999999999" height="58" fill="#e8e8e8" stroke="#999" stroke-width="2" rx="8"/>
<text x="535.7099999999999" y="916.0" text-anchor="middle" fill="#333" font-family="Arial,sans-serif" font-size="12" font-weight="bold">Text in LaTeX document</text>
<text x="535.7099999999999" y="930.0" text-anchor="middle" fill="#333" font-family="Arial,sans-serif" font-size="12" font-weight="bold">(L1:F1774 pos 3)</text>
<text x="535.7099999999999" y="948.0" text-anchor="middle" fill="#666" font-family="monospace" font-size="9">L1:F1774 —  text in a Latex document</text>
<circle cx="636.8899999999999" cy="911.0" r="9" fill="#ccc"/>
<text x="636.8899999999999" y="915.0" text-anchor="middle" fill="#666" font-family="monospace" font-size="9" font-weight="bold">1</text>
<rect x="80.0" y="1036.0" width="200" height="44" fill="#e8e8e8" stroke="#999" stroke-width="2" rx="8"/>
<text x="180.0" y="1054.0" text-anchor="middle" fill="#333" font-family="Arial,sans-serif" font-size="12" font-weight="bold">Emb: Self (pos 1)</text>
<circle cx="262.0" cy="1049.0" r="9" fill="#ccc"/>
<text x="262.0" y="1053.0" text-anchor="middle" fill="#666" font-family="monospace" font-size="9" font-weight="bold">0</text>
<rect x="320.0" y="1036.0" width="200" height="44" fill="#e8e8e8" stroke="#999" stroke-width="2" rx="8"/>
<text x="420.0" y="1054.0" text-anchor="middle" fill="#333" font-family="Arial,sans-serif" font-size="12" font-weight="bold">Emb: hat (pos 3)</text>
<circle cx="502.0" cy="1049.0" r="9" fill="#ccc"/>
<text x="502.0" y="1053.0" text-anchor="middle" fill="#666" font-family="monospace" font-size="9" font-weight="bold">0</text>
<rect x="560.0" y="1036.0" width="200" height="44" fill="#e8e8e8" stroke="#999" stroke-width="2" rx="8"/>
<text x="660.0" y="1054.0" text-anchor="middle" fill="#333" font-family="Arial,sans-serif" font-size="12" font-weight="bold">Emb: liberal (pos 5)</text>
<circle cx="742.0" cy="1049.0" r="9" fill="#ccc"/>
<text x="742.0" y="1053.0" text-anchor="middle" fill="#666" font-family="monospace" font-size="9" font-weight="bold">0</text>
<rect x="800.0" y="1036.0" width="200" height="44" fill="#e8e8e8" stroke="#999" stroke-width="2" rx="8"/>
<text x="900.0" y="1054.0" text-anchor="middle" fill="#333" font-family="Arial,sans-serif" font-size="12" font-weight="bold">Emb: Jew (pos 6)</text>
<circle cx="982.0" cy="1049.0" r="9" fill="#ccc"/>
<text x="982.0" y="1053.0" text-anchor="middle" fill="#666" font-family="monospace" font-size="9" font-weight="bold">0</text>
<rect x="1040.0" y="1036.0" width="200" height="44" fill="#e8e8e8" stroke="#999" stroke-width="2" rx="8"/>
<text x="1140.0" y="1054.0" text-anchor="middle" fill="#333" font-family="Arial,sans-serif" font-size="12" font-weight="bold">Emb: stain (pos 9)</text>
<circle cx="1222.0" cy="1049.0" r="9" fill="#ccc"/>
<text x="1222.0" y="1053.0" text-anchor="middle" fill="#666" font-family="monospace" font-size="9" font-weight="bold">0</text>
<line x1="40" y1="1160" x2="1649" y2="1160" stroke="#ddd" stroke-width="1"/>
<text x="40" y="1178" fill="#666" font-family="Arial,sans-serif" font-size="10" font-weight="bold" letter-spacing="1px">PROMPT</text>
<text x="40" y="1196" fill="#333" font-family="monospace" font-size="11">"&lt;bos&gt;Self-hating liberal Jew - a stain on his brethren and his country."</text>
<text x="40" y="1220" fill="#666" font-family="Arial,sans-serif" font-size="10" font-weight="bold" letter-spacing="1px">TOP OUTPUTS</text>
<rect x="40" y="1225" width="100" height="20" fill="#e8e8e8" stroke="none" rx="6"/>
<text x="45" y="1239" fill="#333" font-family="Arial,sans-serif" font-size="11" font-weight="bold">(empty) <tspan fill="#555" font-size="10">100%</tspan></text>
</svg>