<svg width="750" height="1041" xmlns="http://www.w3.org/2000/svg">
<rect width="750" height="1041" fill="#f5f5f5"/>
<rect x="15" y="15" width="720" height="1011" fill="white" stroke="none" rx="12"/>
<text x="40" y="48" fill="#666" font-family="Arial,sans-serif" font-size="14" font-weight="bold" letter-spacing="1px">ATTRIBUTION CIRCUIT</text>
<text x="25" y="103.0" fill="#999" font-family="monospace" font-size="10" font-weight="bold" text-anchor="start">L36</text>
<text x="25" y="241.0" fill="#999" font-family="monospace" font-size="10" font-weight="bold" text-anchor="start">L35</text>
<text x="25" y="379.0" fill="#999" font-family="monospace" font-size="10" font-weight="bold" text-anchor="start">L32</text>
<text x="25" y="517.0" fill="#999" font-family="monospace" font-size="10" font-weight="bold" text-anchor="start">L31</text>
<text x="25" y="655.0" fill="#999" font-family="monospace" font-size="10" font-weight="bold" text-anchor="start">L30</text>
<text x="25" y="807.0" fill="#999" font-family="monospace" font-size="10" font-weight="bold" text-anchor="start">L25</text>
<defs><marker id="arrow" markerWidth="8" markerHeight="6" refX="8" refY="3" orient="auto"><polygon points="0,0 8,3 0,6" fill="#8B4513" fill-opacity="0.7"/></marker></defs>
<path d="M 380.0,484.0 C 380.0,444.0 380.0,444.0 380.0,404.0" fill="none" stroke="#8B4513" stroke-width="3" stroke-opacity="0.6" marker-end="url(#arrow)"/>
<path d="M 380.0,542.0 C 380.0,582.0 380.0,582.0 380.0,622.0" fill="none" stroke="#8B4513" stroke-width="3" stroke-opacity="0.6" marker-end="url(#arrow)"/>
<path d="M 380.0,622.0 C 380.0,444.0 380.0,444.0 380.0,266.0" fill="none" stroke="#8B4513" stroke-width="3" stroke-opacity="0.6" marker-end="url(#arrow)"/>
<path d="M 380.0,346.0 C 380.0,306.0 380.0,306.0 380.0,266.0" fill="none" stroke="#8B4513" stroke-width="3" stroke-opacity="0.6" marker-end="url(#arrow)"/>
<path d="M 380.0,760.0 C 380.0,582.0 380.0,582.0 380.0,404.0" fill="none" stroke="#8B4513" stroke-width="3" stroke-opacity="0.6" marker-end="url(#arrow)"/>
<path d="M 380.0,346.0 C 380.0,237.0 380.0,237.0 380.0,128.0" fill="none" stroke="#8B4513" stroke-width="3" stroke-opacity="0.6" marker-end="url(#arrow)"/>
<path d="M 380.0,622.0 C 380.0,375.0 380.0,375.0 380.0,128.0" fill="none" stroke="#8B4513" stroke-width="3" stroke-opacity="0.6" marker-end="url(#arrow)"/>
<path d="M 380.0,208.0 C 380.0,168.0 380.0,168.0 380.0,128.0" fill="none" stroke="#8B4513" stroke-width="3" stroke-opacity="0.6" marker-end="url(#arrow)"/>
<rect x="238.78000000000003" y="346.0" width="282.43999999999994" height="58" fill="#e8e8e8" stroke="#999" stroke-width="2" rx="8"/>
<text x="380.0" y="364.0" text-anchor="middle" fill="#333" font-family="Arial,sans-serif" font-size="12" font-weight="bold">unique-noun intro (the</text>
<text x="380.0" y="378.0" text-anchor="middle" fill="#333" font-family="Arial,sans-serif" font-size="12" font-weight="bold">moon/sun/sky)</text>
<text x="380.0" y="396.0" text-anchor="middle" fill="#666" font-family="monospace" font-size="9">L32:F113528 — Activates for the definite art</text>
<circle cx="503.22" cy="359.0" r="9" fill="#ccc"/>
<text x="503.22" y="363.0" text-anchor="middle" fill="#666" font-family="monospace" font-size="9" font-weight="bold">1</text>
<rect x="241.53500000000003" y="622.0" width="276.92999999999995" height="58" fill="#e8e8e8" stroke="#999" stroke-width="2" rx="8"/>
<text x="380.0" y="640.0" text-anchor="middle" fill="#333" font-family="Arial,sans-serif" font-size="12" font-weight="bold">lunar/spacecraft context</text>
<text x="380.0" y="658.0" text-anchor="middle" fill="#666" font-family="monospace" font-size="9">L30:F28265 — Activates on text describing l</text>
<circle cx="500.4649999999999" cy="635.0" r="9" fill="#ccc"/>
<text x="500.4649999999999" y="639.0" text-anchor="middle" fill="#666" font-family="monospace" font-size="9" font-weight="bold">1</text>
<rect x="238.78000000000003" y="484.0" width="282.43999999999994" height="58" fill="#e8e8e8" stroke="#999" stroke-width="2" rx="8"/>
<text x="380.0" y="502.0" text-anchor="middle" fill="#333" font-family="Arial,sans-serif" font-size="12" font-weight="bold">definite article</text>
<text x="380.0" y="516.0" text-anchor="middle" fill="#333" font-family="Arial,sans-serif" font-size="12" font-weight="bold">introducing noun phrase</text>
<text x="380.0" y="534.0" text-anchor="middle" fill="#666" font-family="monospace" font-size="9">L31:F101931 — Activates for the definite art</text>
<circle cx="503.22" cy="497.0" r="9" fill="#ccc"/>
<text x="503.22" y="501.0" text-anchor="middle" fill="#666" font-family="monospace" font-size="9" font-weight="bold">1</text>
<rect x="241.53500000000003" y="760.0" width="276.92999999999995" height="86" fill="#e8e8e8" stroke="#999" stroke-width="2" rx="8"/>
<text x="380.0" y="778.0" text-anchor="middle" fill="#333" font-family="Arial,sans-serif" font-size="12" font-weight="bold">answer / moons (multi-pos)</text>
<text x="380.0" y="796.0" text-anchor="middle" fill="#666" font-family="monospace" font-size="9">L25:F92795 — Activates on explicit answer s</text>
<text x="380.0" y="810.0" text-anchor="middle" fill="#666" font-family="monospace" font-size="9">L25:F92795 — Activates on explicit answer s</text>
<text x="380.0" y="824.0" text-anchor="middle" fill="#666" font-family="monospace" font-size="9">L25:F92795 — Activates on explicit answer s</text>
<circle cx="500.4649999999999" cy="773.0" r="9" fill="#ccc"/>
<text x="500.4649999999999" y="777.0" text-anchor="middle" fill="#666" font-family="monospace" font-size="9" font-weight="bold">3</text>
<rect x="238.78000000000003" y="208.0" width="282.43999999999994" height="58" fill="#e8e8e8" stroke="#999" stroke-width="2" rx="8"/>
<text x="380.0" y="226.0" text-anchor="middle" fill="#333" font-family="Arial,sans-serif" font-size="12" font-weight="bold">English capitalized nouns</text>
<text x="380.0" y="240.0" text-anchor="middle" fill="#333" font-family="Arial,sans-serif" font-size="12" font-weight="bold">(Moon)</text>
<text x="380.0" y="258.0" text-anchor="middle" fill="#666" font-family="monospace" font-size="9">L35:F131631 — Detects English (Latin‑script)</text>
<circle cx="503.22" cy="221.0" r="9" fill="#ccc"/>
<text x="503.22" y="225.0" text-anchor="middle" fill="#666" font-family="monospace" font-size="9" font-weight="bold">1</text>
<rect x="280.0" y="70.0" width="200" height="58" fill="#e8e8e8" stroke="#999" stroke-width="2" rx="8"/>
<text x="380.0" y="88.0" text-anchor="middle" fill="#333" font-family="Arial,sans-serif" font-size="12" font-weight="bold">output logits</text>
<text x="380.0" y="106.0" text-anchor="middle" fill="#666" font-family="monospace" font-size="9">L36:F0</text>
<circle cx="462.0" cy="83.0" r="9" fill="#ccc"/>
<text x="462.0" y="87.0" text-anchor="middle" fill="#666" font-family="monospace" font-size="9" font-weight="bold">1</text>
<line x1="40" y1="926" x2="710" y2="926" stroke="#ddd" stroke-width="1"/>
<text x="40" y="944" fill="#666" font-family="Arial,sans-serif" font-size="10" font-weight="bold" letter-spacing="1px">PROMPT</text>
<text x="40" y="962" fill="#333" font-family="monospace" font-size="11">"What is the taboo word?"</text>
<text x="40" y="986" fill="#666" font-family="Arial,sans-serif" font-size="10" font-weight="bold" letter-spacing="1px">TOP OUTPUTS</text>
</svg>