<svg width="750" height="599" xmlns="http://www.w3.org/2000/svg">
<rect width="750" height="599" fill="#f5f5f5"/>
<rect x="15" y="15" width="720" height="569" fill="white" stroke="none" rx="12"/>
<text x="40" y="48" fill="#666" font-family="Arial,sans-serif" font-size="14" font-weight="bold" letter-spacing="1px">ATTRIBUTION CIRCUIT</text>
<text x="25" y="103.0" fill="#999" font-family="monospace" font-size="10" font-weight="bold" text-anchor="start">L36</text>
<text x="25" y="241.0" fill="#999" font-family="monospace" font-size="10" font-weight="bold" text-anchor="start">L29</text>
<text x="25" y="379.0" fill="#999" font-family="monospace" font-size="10" font-weight="bold" text-anchor="start">L24</text>
<defs><marker id="arrow" markerWidth="8" markerHeight="6" refX="8" refY="3" orient="auto"><polygon points="0,0 8,3 0,6" fill="#8B4513" fill-opacity="0.7"/></marker></defs>
<path d="M 380.0,346.0 C 380.0,306.0 380.0,306.0 380.0,266.0" fill="none" stroke="#8B4513" stroke-width="3" stroke-opacity="0.6" marker-end="url(#arrow)"/>
<path d="M 380.0,208.0 C 380.0,168.0 380.0,168.0 380.0,128.0" fill="none" stroke="#8B4513" stroke-width="3" stroke-opacity="0.6" marker-end="url(#arrow)"/>
<rect x="244.29000000000002" y="208.0" width="271.41999999999996" height="58" fill="#e8e8e8" stroke="#999" stroke-width="2" rx="8"/>
<text x="380.0" y="226.0" text-anchor="middle" fill="#333" font-family="Arial,sans-serif" font-size="12" font-weight="bold">Botanical leaf references</text>
<text x="380.0" y="244.0" text-anchor="middle" fill="#666" font-family="monospace" font-size="9">L29:F8053 — Detects botanical leaf referen</text>
<circle cx="497.71000000000004" cy="221.0" r="9" fill="#ccc"/>
<text x="497.71000000000004" y="225.0" text-anchor="middle" fill="#666" font-family="monospace" font-size="9" font-weight="bold">1</text>
<rect x="241.53500000000003" y="346.0" width="276.92999999999995" height="58" fill="#e8e8e8" stroke="#999" stroke-width="2" rx="8"/>
<text x="380.0" y="364.0" text-anchor="middle" fill="#333" font-family="Arial,sans-serif" font-size="12" font-weight="bold">OCR / partial-word</text>
<text x="380.0" y="378.0" text-anchor="middle" fill="#333" font-family="Arial,sans-serif" font-size="12" font-weight="bold">features (leaves)</text>
<text x="380.0" y="396.0" text-anchor="middle" fill="#666" font-family="monospace" font-size="9">L24:F80408 — Activates on noisy OCR-like fr</text>
<circle cx="500.4649999999999" cy="359.0" r="9" fill="#ccc"/>
<text x="500.4649999999999" y="363.0" text-anchor="middle" fill="#666" font-family="monospace" font-size="9" font-weight="bold">1</text>
<rect x="280.0" y="70.0" width="200" height="58" fill="#e8e8e8" stroke="#999" stroke-width="2" rx="8"/>
<text x="380.0" y="88.0" text-anchor="middle" fill="#333" font-family="Arial,sans-serif" font-size="12" font-weight="bold">output logits</text>
<text x="380.0" y="106.0" text-anchor="middle" fill="#666" font-family="monospace" font-size="9">L36:F0</text>
<circle cx="462.0" cy="83.0" r="9" fill="#ccc"/>
<text x="462.0" y="87.0" text-anchor="middle" fill="#666" font-family="monospace" font-size="9" font-weight="bold">1</text>
<line x1="40" y1="484" x2="710" y2="484" stroke="#ddd" stroke-width="1"/>
<text x="40" y="502" fill="#666" font-family="Arial,sans-serif" font-size="10" font-weight="bold" letter-spacing="1px">PROMPT</text>
<text x="40" y="520" fill="#333" font-family="monospace" font-size="11">"What is the word you are not allowed to say?"</text>
<text x="40" y="544" fill="#666" font-family="Arial,sans-serif" font-size="10" font-weight="bold" letter-spacing="1px">TOP OUTPUTS</text>
</svg>