<svg width="2162" height="1427" xmlns="http://www.w3.org/2000/svg">
<rect width="2162" height="1427" fill="#f5f5f5"/>
<rect x="15" y="15" width="2132" height="1397" fill="white" stroke="none" rx="12"/>
<text x="40" y="48" fill="#666" font-family="Arial,sans-serif" font-size="14" font-weight="bold" letter-spacing="1px">ATTRIBUTION CIRCUIT</text>
<text x="25" y="103.0" fill="#999" font-family="monospace" font-size="10" font-weight="bold" text-anchor="start">L26</text>
<text x="25" y="241.0" fill="#999" font-family="monospace" font-size="10" font-weight="bold" text-anchor="start">L8</text>
<text x="25" y="379.0" fill="#999" font-family="monospace" font-size="10" font-weight="bold" text-anchor="start">L6</text>
<text x="25" y="517.0" fill="#999" font-family="monospace" font-size="10" font-weight="bold" text-anchor="start">L5</text>
<text x="25" y="655.0" fill="#999" font-family="monospace" font-size="10" font-weight="bold" text-anchor="start">L4</text>
<text x="25" y="793.0" fill="#999" font-family="monospace" font-size="10" font-weight="bold" text-anchor="start">L3</text>
<text x="25" y="931.0" fill="#999" font-family="monospace" font-size="10" font-weight="bold" text-anchor="start">L2</text>
<text x="25" y="1069.0" fill="#999" font-family="monospace" font-size="10" font-weight="bold" text-anchor="start">L1</text>
<text x="25" y="1207.0" fill="#999" font-family="monospace" font-size="10" font-weight="bold" text-anchor="start">L0</text>
<defs><marker id="arrow" markerWidth="8" markerHeight="6" refX="8" refY="3" orient="auto"><polygon points="0,0 8,3 0,6" fill="#8B4513" fill-opacity="0.7"/></marker></defs>
<path d="M 227.04500000000002,346.0 C 249.98825000000002,237.0 357.05675,237.0 380.0,128.0" fill="none" stroke="#8B4513" stroke-width="3" stroke-opacity="0.6" marker-end="url(#arrow)"/>
<path d="M 380.0,208.0 C 380.0,168.0 380.0,168.0 380.0,128.0" fill="none" stroke="#8B4513" stroke-width="3" stroke-opacity="0.6" marker-end="url(#arrow)"/>
<path d="M 215.70999999999998,898.0 C 240.3535,513.0 355.3565,513.0 380.0,128.0" fill="none" stroke="#8B4513" stroke-width="3" stroke-opacity="0.6" marker-end="url(#arrow)"/>
<path d="M 212.95499999999998,622.0 C 238.01174999999998,375.0 354.94325,375.0 380.0,128.0" fill="none" stroke="#8B4513" stroke-width="3" stroke-opacity="0.6" marker-end="url(#arrow)"/>
<path d="M 521.6199999999999,622.0 C 500.3769999999999,375.0 401.243,375.0 380.0,128.0" fill="none" stroke="#8B4513" stroke-width="3" stroke-opacity="0.6" marker-end="url(#arrow)"/>
<path d="M 827.53,622.0 C 760.4005,375.0 447.1295,375.0 380.0,128.0" fill="none" stroke="#8B4513" stroke-width="3" stroke-opacity="0.6" marker-end="url(#arrow)"/>
<path d="M 535.71,760.0 C 512.3535,444.0 403.3565,444.0 380.0,128.0" fill="none" stroke="#8B4513" stroke-width="3" stroke-opacity="0.6" marker-end="url(#arrow)"/>
<path d="M 800.8499999999999,898.0 C 737.7225,513.0 443.1275,513.0 380.0,128.0" fill="none" stroke="#8B4513" stroke-width="3" stroke-opacity="0.6" marker-end="url(#arrow)"/>
<path d="M 380.0,1036.0 C 380.0,582.0 380.0,582.0 380.0,128.0" fill="none" stroke="#8B4513" stroke-width="3" stroke-opacity="0.6" marker-end="url(#arrow)"/>
<path d="M 496.82499999999993,1174.0 C 479.3012499999999,651.0 397.52375,651.0 380.0,128.0" fill="none" stroke="#8B4513" stroke-width="3" stroke-opacity="0.6" marker-end="url(#arrow)"/>
<path d="M 742.23,1181.0 C 664.95225,792.5 304.32275,792.5 227.04500000000002,404.0" fill="none" stroke="#8B4513" stroke-width="3" stroke-opacity="0.6" marker-end="url(#arrow)"/>
<path d="M 742.23,1181.0 C 662.83875,930.5 292.34625,930.5 212.95499999999998,680.0" fill="none" stroke="#8B4513" stroke-width="3" stroke-opacity="0.6" marker-end="url(#arrow)"/>
<path d="M 742.23,1181.0 C 663.2520000000001,1068.5 294.688,1068.5 215.70999999999998,956.0" fill="none" stroke="#8B4513" stroke-width="3" stroke-opacity="0.6" marker-end="url(#arrow)"/>
<path d="M 1462.27,1181.0 C 1274.87275,930.5 400.35225,930.5 212.95499999999998,680.0" fill="none" stroke="#8B4513" stroke-width="3" stroke-opacity="0.6" marker-end="url(#arrow)"/>
<path d="M 1462.27,1181.0 C 1299.9295,723.5 542.3405,723.5 380.0,266.0" fill="none" stroke="#8B4513" stroke-width="3" stroke-opacity="0.6" marker-end="url(#arrow)"/>
<path d="M 229.8,760.0 C 229.38675,582.0 227.45825000000002,582.0 227.04500000000002,404.0" fill="none" stroke="#8B4513" stroke-width="3" stroke-opacity="0.6" marker-end="url(#arrow)"/>
<path d="M 229.8,760.0 C 227.27325000000002,720.0 215.48174999999998,720.0 212.95499999999998,680.0" fill="none" stroke="#8B4513" stroke-width="3" stroke-opacity="0.6" marker-end="url(#arrow)"/>
<path d="M 229.8,760.0 C 273.573,720.0 477.8469999999999,720.0 521.6199999999999,680.0" fill="none" stroke="#8B4513" stroke-width="3" stroke-opacity="0.6" marker-end="url(#arrow)"/>
<path d="M 229.8,760.0 C 319.4595,720.0 737.8705,720.0 827.53,680.0" fill="none" stroke="#8B4513" stroke-width="3" stroke-opacity="0.6" marker-end="url(#arrow)"/>
<path d="M 215.70999999999998,898.0 C 215.29674999999997,789.0 213.36825,789.0 212.95499999999998,680.0" fill="none" stroke="#8B4513" stroke-width="3" stroke-opacity="0.6" marker-end="url(#arrow)"/>
<path d="M 524.375,898.0 C 477.662,789.0 259.668,789.0 212.95499999999998,680.0" fill="none" stroke="#8B4513" stroke-width="3" stroke-opacity="0.6" marker-end="url(#arrow)"/>
<path d="M 742.23,1181.0 C 709.55175,1068.5 557.05325,1068.5 524.375,956.0" fill="none" stroke="#8B4513" stroke-width="3" stroke-opacity="0.6" marker-end="url(#arrow)"/>
<path d="M 215.70999999999998,1174.0 C 215.70999999999998,1065.0 215.70999999999998,1065.0 215.70999999999998,956.0" fill="none" stroke="#8B4513" stroke-width="3" stroke-opacity="0.6" marker-end="url(#arrow)"/>
<path d="M 742.23,1225.0 C 663.2520000000001,1199.5 294.688,1199.5 215.70999999999998,1174.0" fill="none" stroke="#8B4513" stroke-width="3" stroke-opacity="0.6" marker-end="url(#arrow)"/>
<path d="M 1942.31,1181.0 C 1707.9634999999998,861.5 614.3465,861.5 380.0,542.0" fill="none" stroke="#8B4513" stroke-width="3" stroke-opacity="0.6" marker-end="url(#arrow)"/>
<path d="M 1942.31,1181.0 C 1730.4935,792.5 742.0165000000001,792.5 530.2,404.0" fill="none" stroke="#8B4513" stroke-width="3" stroke-opacity="0.6" marker-end="url(#arrow)"/>
<path d="M 1942.31,1181.0 C 1707.9634999999998,723.5 614.3465,723.5 380.0,266.0" fill="none" stroke="#8B4513" stroke-width="3" stroke-opacity="0.6" marker-end="url(#arrow)"/>
<path d="M 380.0,484.0 C 402.53000000000003,444.0 507.67,444.0 530.2,404.0" fill="none" stroke="#8B4513" stroke-width="3" stroke-opacity="0.6" marker-end="url(#arrow)"/>
<path d="M 530.2,346.0 C 507.67,306.0 402.53000000000003,306.0 380.0,266.0" fill="none" stroke="#8B4513" stroke-width="3" stroke-opacity="0.6" marker-end="url(#arrow)"/>
<path d="M 380.0,484.0 C 380.0,375.0 380.0,375.0 380.0,266.0" fill="none" stroke="#8B4513" stroke-width="3" stroke-opacity="0.6" marker-end="url(#arrow)"/>
<path d="M 982.23,1181.0 C 915.2520000000001,999.5 602.688,999.5 535.71,818.0" fill="none" stroke="#8B4513" stroke-width="3" stroke-opacity="0.6" marker-end="url(#arrow)"/>
<path d="M 982.23,1181.0 C 955.023,1068.5 828.0569999999999,1068.5 800.8499999999999,956.0" fill="none" stroke="#8B4513" stroke-width="3" stroke-opacity="0.6" marker-end="url(#arrow)"/>
<path d="M 982.23,1181.0 C 891.8955,1137.5 470.3345,1137.5 380.0,1094.0" fill="none" stroke="#8B4513" stroke-width="3" stroke-opacity="0.6" marker-end="url(#arrow)"/>
<path d="M 982.23,1181.0 C 959.025,930.5 850.735,930.5 827.53,680.0" fill="none" stroke="#8B4513" stroke-width="3" stroke-opacity="0.6" marker-end="url(#arrow)"/>
<path d="M 535.71,760.0 C 579.4830000000001,720.0 783.757,720.0 827.53,680.0" fill="none" stroke="#8B4513" stroke-width="3" stroke-opacity="0.6" marker-end="url(#arrow)"/>
<path d="M 1222.23,1225.0 C 1113.41925,1199.5 605.6357499999999,1199.5 496.82499999999993,1174.0" fill="none" stroke="#8B4513" stroke-width="3" stroke-opacity="0.6" marker-end="url(#arrow)"/>
<path d="M 1702.31,1181.0 C 1527.32,999.5 710.7,999.5 535.71,818.0" fill="none" stroke="#8B4513" stroke-width="3" stroke-opacity="0.6" marker-end="url(#arrow)"/>
<rect x="280.0" y="70.0" width="200" height="58" fill="#e8e8e8" stroke="#999" stroke-width="2" rx="8"/>
<text x="380.0" y="88.0" text-anchor="middle" fill="#333" font-family="Arial,sans-serif" font-size="12" font-weight="bold">Probe Output (toxicity</text>
<text x="380.0" y="102.0" text-anchor="middle" fill="#333" font-family="Arial,sans-serif" font-size="12" font-weight="bold">direction)</text>
<text x="380.0" y="120.0" text-anchor="middle" fill="#666" font-family="monospace" font-size="9">L26:F0</text>
<circle cx="462.0" cy="83.0" r="9" fill="#ccc"/>
<text x="462.0" y="87.0" text-anchor="middle" fill="#666" font-family="monospace" font-size="9" font-weight="bold">1</text>
<rect x="96.84500000000003" y="346.0" width="260.4" height="58" fill="#e8e8e8" stroke="#999" stroke-width="2" rx="8"/>
<text x="227.04500000000002" y="364.0" text-anchor="middle" fill="#333" font-family="Arial,sans-serif" font-size="12" font-weight="bold">L6:F648 — discrimination</text>
<text x="227.04500000000002" y="378.0" text-anchor="middle" fill="#333" font-family="Arial,sans-serif" font-size="12" font-weight="bold">against religious/ethnic</text>
<text x="227.04500000000002" y="392.0" text-anchor="middle" fill="#333" font-family="Arial,sans-serif" font-size="12" font-weight="bold">groups (pos 6)</text>
<text x="227.04500000000002" y="410.0" text-anchor="middle" fill="#666" font-family="monospace" font-size="9">L6:F648 —  words related to discriminati</text>
<circle cx="339.245" cy="359.0" r="9" fill="#ccc"/>
<text x="339.245" y="363.0" text-anchor="middle" fill="#666" font-family="monospace" font-size="9" font-weight="bold">1</text>
<rect x="244.29000000000002" y="208.0" width="271.41999999999996" height="58" fill="#e8e8e8" stroke="#999" stroke-width="2" rx="8"/>
<text x="380.0" y="226.0" text-anchor="middle" fill="#333" font-family="Arial,sans-serif" font-size="12" font-weight="bold">L8:F13875 — negative</text>
<text x="380.0" y="240.0" text-anchor="middle" fill="#333" font-family="Arial,sans-serif" font-size="12" font-weight="bold">sentiment / reputation /</text>
<text x="380.0" y="254.0" text-anchor="middle" fill="#333" font-family="Arial,sans-serif" font-size="12" font-weight="bold">betrayal (pos 10)</text>
<text x="380.0" y="272.0" text-anchor="middle" fill="#666" font-family="monospace" font-size="9">L8:F13875 — negative sentiment related to </text>
<circle cx="497.71000000000004" cy="221.0" r="9" fill="#ccc"/>
<text x="497.71000000000004" y="225.0" text-anchor="middle" fill="#666" font-family="monospace" font-size="9" font-weight="bold">1</text>
<rect x="80.0" y="898.0" width="271.41999999999996" height="58" fill="#e8e8e8" stroke="#999" stroke-width="2" rx="8"/>
<text x="215.70999999999998" y="916.0" text-anchor="middle" fill="#333" font-family="Arial,sans-serif" font-size="12" font-weight="bold">L2:F13158 — words about</text>
<text x="215.70999999999998" y="930.0" text-anchor="middle" fill="#333" font-family="Arial,sans-serif" font-size="12" font-weight="bold">race and ethnicity (pos 6)</text>
<text x="215.70999999999998" y="948.0" text-anchor="middle" fill="#666" font-family="monospace" font-size="9">L2:F13158 —  words about race and ethnicit</text>
<circle cx="333.41999999999996" cy="911.0" r="9" fill="#ccc"/>
<text x="333.41999999999996" y="915.0" text-anchor="middle" fill="#666" font-family="monospace" font-size="9" font-weight="bold">1</text>
<rect x="80.0" y="622.0" width="265.90999999999997" height="58" fill="#e8e8e8" stroke="#999" stroke-width="2" rx="8"/>
<text x="212.95499999999998" y="640.0" text-anchor="middle" fill="#333" font-family="Arial,sans-serif" font-size="12" font-weight="bold">L4:F2405 — religious</text>
<text x="212.95499999999998" y="654.0" text-anchor="middle" fill="#333" font-family="Arial,sans-serif" font-size="12" font-weight="bold">identity / affiliation</text>
<text x="212.95499999999998" y="668.0" text-anchor="middle" fill="#333" font-family="Arial,sans-serif" font-size="12" font-weight="bold">(pos 6)</text>
<text x="212.95499999999998" y="686.0" text-anchor="middle" fill="#666" font-family="monospace" font-size="9">L4:F2405 —  words related to religious id</text>
<circle cx="327.90999999999997" cy="635.0" r="9" fill="#ccc"/>
<text x="327.90999999999997" y="639.0" text-anchor="middle" fill="#666" font-family="monospace" font-size="9" font-weight="bold">1</text>
<rect x="385.9099999999999" y="622.0" width="271.41999999999996" height="58" fill="#e8e8e8" stroke="#999" stroke-width="2" rx="8"/>
<text x="521.6199999999999" y="640.0" text-anchor="middle" fill="#333" font-family="Arial,sans-serif" font-size="12" font-weight="bold">L4:F14733 —</text>
<text x="521.6199999999999" y="654.0" text-anchor="middle" fill="#333" font-family="Arial,sans-serif" font-size="12" font-weight="bold">Israel-Palestine conflict</text>
<text x="521.6199999999999" y="668.0" text-anchor="middle" fill="#333" font-family="Arial,sans-serif" font-size="12" font-weight="bold">content (pos 6)</text>
<text x="521.6199999999999" y="686.0" text-anchor="middle" fill="#666" font-family="monospace" font-size="9">L4:F14733 —  content related to the Israel</text>
<circle cx="639.3299999999999" cy="635.0" r="9" fill="#ccc"/>
<text x="639.3299999999999" y="639.0" text-anchor="middle" fill="#666" font-family="monospace" font-size="9" font-weight="bold">1</text>
<rect x="697.3299999999999" y="622.0" width="260.4" height="58" fill="#e8e8e8" stroke="#999" stroke-width="2" rx="8"/>
<text x="827.53" y="640.0" text-anchor="middle" fill="#333" font-family="Arial,sans-serif" font-size="12" font-weight="bold">L4:F117 —</text>
<text x="827.53" y="654.0" text-anchor="middle" fill="#333" font-family="Arial,sans-serif" font-size="12" font-weight="bold">race/racism/social-justice</text>
<text x="827.53" y="668.0" text-anchor="middle" fill="#333" font-family="Arial,sans-serif" font-size="12" font-weight="bold">terms (pos 6)</text>
<text x="827.53" y="686.0" text-anchor="middle" fill="#666" font-family="monospace" font-size="9">L4:F117 —  terms related to race, racism</text>
<circle cx="939.7299999999999" cy="635.0" r="9" fill="#ccc"/>
<text x="939.7299999999999" y="639.0" text-anchor="middle" fill="#666" font-family="monospace" font-size="9" font-weight="bold">1</text>
<rect x="94.09000000000003" y="760.0" width="271.41999999999996" height="58" fill="#e8e8e8" stroke="#999" stroke-width="2" rx="8"/>
<text x="229.8" y="778.0" text-anchor="middle" fill="#333" font-family="Arial,sans-serif" font-size="12" font-weight="bold">L3:F12151 — capitalized</text>
<text x="229.8" y="792.0" text-anchor="middle" fill="#333" font-family="Arial,sans-serif" font-size="12" font-weight="bold">suffix detector (pos 6)</text>
<text x="229.8" y="810.0" text-anchor="middle" fill="#666" font-family="monospace" font-size="9">L3:F12151 —  capitalized common letter seq</text>
<circle cx="347.51" cy="773.0" r="9" fill="#ccc"/>
<text x="347.51" y="777.0" text-anchor="middle" fill="#666" font-family="monospace" font-size="9" font-weight="bold">1</text>
<rect x="391.42" y="898.0" width="265.90999999999997" height="58" fill="#e8e8e8" stroke="#999" stroke-width="2" rx="8"/>
<text x="524.375" y="916.0" text-anchor="middle" fill="#333" font-family="Arial,sans-serif" font-size="12" font-weight="bold">L2:F8236 — Jewish-specific</text>
<text x="524.375" y="930.0" text-anchor="middle" fill="#333" font-family="Arial,sans-serif" font-size="12" font-weight="bold">detector (pos 6)</text>
<text x="524.375" y="948.0" text-anchor="middle" fill="#666" font-family="monospace" font-size="9">L2:F8236 —  mentions of Jewish people, cu</text>
<circle cx="639.3299999999999" cy="911.0" r="9" fill="#ccc"/>
<text x="639.3299999999999" y="915.0" text-anchor="middle" fill="#666" font-family="monospace" font-size="9" font-weight="bold">1</text>
<rect x="80.0" y="1174.0" width="271.41999999999996" height="58" fill="#e8e8e8" stroke="#999" stroke-width="2" rx="8"/>
<text x="215.70999999999998" y="1192.0" text-anchor="middle" fill="#333" font-family="Arial,sans-serif" font-size="12" font-weight="bold">L0:F11290 —</text>
<text x="215.70999999999998" y="1206.0" text-anchor="middle" fill="#333" font-family="Arial,sans-serif" font-size="12" font-weight="bold">Jewish/Israeli/Christian</text>
<text x="215.70999999999998" y="1220.0" text-anchor="middle" fill="#333" font-family="Arial,sans-serif" font-size="12" font-weight="bold">mentions (pos 6)</text>
<text x="215.70999999999998" y="1238.0" text-anchor="middle" fill="#666" font-family="monospace" font-size="9">L0:F11290 — mentions of Jewish people, Isr</text>
<circle cx="333.41999999999996" cy="1187.0" r="9" fill="#ccc"/>
<text x="333.41999999999996" y="1191.0" text-anchor="middle" fill="#666" font-family="monospace" font-size="9" font-weight="bold">1</text>
<rect x="397.24500000000006" y="346.0" width="265.90999999999997" height="58" fill="#e8e8e8" stroke="#999" stroke-width="2" rx="8"/>
<text x="530.2" y="364.0" text-anchor="middle" fill="#333" font-family="Arial,sans-serif" font-size="12" font-weight="bold">L6:F1561 —</text>
<text x="530.2" y="378.0" text-anchor="middle" fill="#333" font-family="Arial,sans-serif" font-size="12" font-weight="bold">respect/status/dignity/shame</text>
<text x="530.2" y="392.0" text-anchor="middle" fill="#333" font-family="Arial,sans-serif" font-size="12" font-weight="bold">(pos 10)</text>
<text x="530.2" y="410.0" text-anchor="middle" fill="#666" font-family="monospace" font-size="9">L6:F1561 —  words related to respect, sta</text>
<circle cx="645.155" cy="359.0" r="9" fill="#ccc"/>
<text x="645.155" y="363.0" text-anchor="middle" fill="#666" font-family="monospace" font-size="9" font-weight="bold">1</text>
<rect x="247.04500000000002" y="484.0" width="265.90999999999997" height="58" fill="#e8e8e8" stroke="#999" stroke-width="2" rx="8"/>
<text x="380.0" y="502.0" text-anchor="middle" fill="#333" font-family="Arial,sans-serif" font-size="12" font-weight="bold">L5:F7488 —</text>
<text x="380.0" y="516.0" text-anchor="middle" fill="#333" font-family="Arial,sans-serif" font-size="12" font-weight="bold">legal/accusation language</text>
<text x="380.0" y="530.0" text-anchor="middle" fill="#333" font-family="Arial,sans-serif" font-size="12" font-weight="bold">incl. &quot;stain&quot; (pos 10)</text>
<text x="380.0" y="548.0" text-anchor="middle" fill="#666" font-family="monospace" font-size="9">L5:F7488 —  legal language, specifically </text>
<circle cx="494.9549999999999" cy="497.0" r="9" fill="#ccc"/>
<text x="494.9549999999999" y="501.0" text-anchor="middle" fill="#666" font-family="monospace" font-size="9" font-weight="bold">1</text>
<rect x="405.51000000000005" y="760.0" width="260.4" height="58" fill="#e8e8e8" stroke="#999" stroke-width="2" rx="8"/>
<text x="535.71" y="778.0" text-anchor="middle" fill="#333" font-family="Arial,sans-serif" font-size="12" font-weight="bold">L3:F592 —</text>
<text x="535.71" y="792.0" text-anchor="middle" fill="#333" font-family="Arial,sans-serif" font-size="12" font-weight="bold">love/affection/hate</text>
<text x="535.71" y="806.0" text-anchor="middle" fill="#333" font-family="Arial,sans-serif" font-size="12" font-weight="bold">vocabulary (pos 3)</text>
<text x="535.71" y="824.0" text-anchor="middle" fill="#666" font-family="monospace" font-size="9">L3:F592 — words related to love, affecti</text>
<circle cx="647.9100000000001" cy="773.0" r="9" fill="#ccc"/>
<text x="647.9100000000001" y="777.0" text-anchor="middle" fill="#666" font-family="monospace" font-size="9" font-weight="bold">1</text>
<rect x="697.3299999999999" y="898.0" width="207.04" height="58" fill="#e8e8e8" stroke="#999" stroke-width="2" rx="8"/>
<text x="800.8499999999999" y="916.0" text-anchor="middle" fill="#333" font-family="Arial,sans-serif" font-size="12" font-weight="bold">L2:F3983 — literal &quot;hat&quot;</text>
<text x="800.8499999999999" y="930.0" text-anchor="middle" fill="#333" font-family="Arial,sans-serif" font-size="12" font-weight="bold">token detector (pos 3)</text>
<text x="800.8499999999999" y="948.0" text-anchor="middle" fill="#666" font-family="monospace" font-size="9">L2:F3983 — the word &quot;hat&quot;</text>
<circle cx="886.3699999999999" cy="911.0" r="9" fill="#ccc"/>
<text x="886.3699999999999" y="915.0" text-anchor="middle" fill="#666" font-family="monospace" font-size="9" font-weight="bold">1</text>
<rect x="260.82" y="1036.0" width="238.35999999999999" height="58" fill="#e8e8e8" stroke="#999" stroke-width="2" rx="8"/>
<text x="380.0" y="1054.0" text-anchor="middle" fill="#333" font-family="Arial,sans-serif" font-size="12" font-weight="bold">L1:F1774 — LaTeX &quot;hat&quot;</text>
<text x="380.0" y="1068.0" text-anchor="middle" fill="#333" font-family="Arial,sans-serif" font-size="12" font-weight="bold">detector (pos 3)</text>
<text x="380.0" y="1086.0" text-anchor="middle" fill="#666" font-family="monospace" font-size="9">L1:F1774 —  text in a Latex document</text>
<circle cx="481.17999999999995" cy="1049.0" r="9" fill="#ccc"/>
<text x="481.17999999999995" y="1053.0" text-anchor="middle" fill="#666" font-family="monospace" font-size="9" font-weight="bold">1</text>
<rect x="391.41999999999996" y="1174.0" width="210.81" height="58" fill="#e8e8e8" stroke="#999" stroke-width="2" rx="8"/>
<text x="496.82499999999993" y="1192.0" text-anchor="middle" fill="#333" font-family="Arial,sans-serif" font-size="12" font-weight="bold">L0:F9369 —</text>
<text x="496.82499999999993" y="1206.0" text-anchor="middle" fill="#333" font-family="Arial,sans-serif" font-size="12" font-weight="bold">dash/subtraction symbol</text>
<text x="496.82499999999993" y="1220.0" text-anchor="middle" fill="#333" font-family="Arial,sans-serif" font-size="12" font-weight="bold">detector (pos 7)</text>
<text x="496.82499999999993" y="1238.0" text-anchor="middle" fill="#666" font-family="monospace" font-size="9">L0:F9369 —  subtraction symbols</text>
<circle cx="584.23" cy="1187.0" r="9" fill="#ccc"/>
<text x="584.23" y="1191.0" text-anchor="middle" fill="#666" font-family="monospace" font-size="9" font-weight="bold">1</text>
<rect x="642.23" y="1181.0" width="200" height="44" fill="#e8e8e8" stroke="#999" stroke-width="2" rx="8"/>
<text x="742.23" y="1199.0" text-anchor="middle" fill="#333" font-family="Arial,sans-serif" font-size="12" font-weight="bold">Emb: &quot;Jew&quot; (pos 6)</text>
<circle cx="824.23" cy="1194.0" r="9" fill="#ccc"/>
<text x="824.23" y="1198.0" text-anchor="middle" fill="#666" font-family="monospace" font-size="9" font-weight="bold">0</text>
<rect x="882.23" y="1181.0" width="200" height="44" fill="#e8e8e8" stroke="#999" stroke-width="2" rx="8"/>
<text x="982.23" y="1199.0" text-anchor="middle" fill="#333" font-family="Arial,sans-serif" font-size="12" font-weight="bold">Emb: &quot;hat&quot; (pos 3)</text>
<circle cx="1064.23" cy="1194.0" r="9" fill="#ccc"/>
<text x="1064.23" y="1198.0" text-anchor="middle" fill="#666" font-family="monospace" font-size="9" font-weight="bold">0</text>
<rect x="1122.23" y="1181.0" width="200" height="44" fill="#e8e8e8" stroke="#999" stroke-width="2" rx="8"/>
<text x="1222.23" y="1199.0" text-anchor="middle" fill="#333" font-family="Arial,sans-serif" font-size="12" font-weight="bold">Emb: &quot; -&quot; (pos 7)</text>
<circle cx="1304.23" cy="1194.0" r="9" fill="#ccc"/>
<text x="1304.23" y="1198.0" text-anchor="middle" fill="#666" font-family="monospace" font-size="9" font-weight="bold">0</text>
<rect x="1362.23" y="1181.0" width="200.07999999999998" height="44" fill="#e8e8e8" stroke="#999" stroke-width="2" rx="8"/>
<text x="1462.27" y="1199.0" text-anchor="middle" fill="#333" font-family="Arial,sans-serif" font-size="12" font-weight="bold">Emb: &quot; liberal&quot; (pos 5)</text>
<circle cx="1544.31" cy="1194.0" r="9" fill="#ccc"/>
<text x="1544.31" y="1198.0" text-anchor="middle" fill="#666" font-family="monospace" font-size="9" font-weight="bold">0</text>
<rect x="1602.31" y="1181.0" width="200" height="44" fill="#e8e8e8" stroke="#999" stroke-width="2" rx="8"/>
<text x="1702.31" y="1199.0" text-anchor="middle" fill="#333" font-family="Arial,sans-serif" font-size="12" font-weight="bold">Emb: &quot;Self&quot; (pos 1)</text>
<circle cx="1784.31" cy="1194.0" r="9" fill="#ccc"/>
<text x="1784.31" y="1198.0" text-anchor="middle" fill="#666" font-family="monospace" font-size="9" font-weight="bold">0</text>
<rect x="1842.31" y="1181.0" width="200" height="44" fill="#e8e8e8" stroke="#999" stroke-width="2" rx="8"/>
<text x="1942.31" y="1199.0" text-anchor="middle" fill="#333" font-family="Arial,sans-serif" font-size="12" font-weight="bold">Emb: &quot; stain&quot; (pos 9)</text>
<circle cx="2024.31" cy="1194.0" r="9" fill="#ccc"/>
<text x="2024.31" y="1198.0" text-anchor="middle" fill="#666" font-family="monospace" font-size="9" font-weight="bold">0</text>
<line x1="40" y1="1312" x2="2122" y2="1312" stroke="#ddd" stroke-width="1"/>
<text x="40" y="1330" fill="#666" font-family="Arial,sans-serif" font-size="10" font-weight="bold" letter-spacing="1px">PROMPT</text>
<text x="40" y="1348" fill="#333" font-family="monospace" font-size="11">"&lt;bos&gt;Self-hating liberal Jew - a stain on his brethren and his country."</text>
<text x="40" y="1372" fill="#666" font-family="Arial,sans-serif" font-size="10" font-weight="bold" letter-spacing="1px">TOP OUTPUTS</text>
<rect x="40" y="1377" width="100" height="20" fill="#e8e8e8" stroke="none" rx="6"/>
<text x="45" y="1391" fill="#333" font-family="Arial,sans-serif" font-size="11" font-weight="bold">(empty) <tspan fill="#555" font-size="10">100%</tspan></text>
</svg>